<svg width="20" height="20" viewBox="0 0 20 20" fill="none" xmlns="http://www.w3.org/2000/svg">
<path d="M1 7.99968V18C1 18.2652 1.10534 18.5195 1.29285 18.707C1.48035 18.8945 1.73467 18.9998 1.99984 18.9998H18.0002C18.2653 18.9998 18.5196 18.8945 18.7072 18.707C18.8947 18.5195 19 18.2652 19 18V7.99968M1 7.99968H19M1 7.99968V3.99984C1 3.73467 1.10534 3.48035 1.29285 3.29285C1.48035 3.10534 1.73467 3 1.99984 3H18.0002C18.2653 3 18.5196 3.10534 18.7072 3.29285C18.8947 3.48035 19 3.73467 19 3.99984V7.99968" stroke="#373942" stroke-linecap="round" stroke-linejoin="round"/>
<path d="M13.9998 1V4.99984M6.00016 1V4.99984" stroke="#344054" stroke-linecap="round" stroke-linejoin="round"/>
</svg>
