<svg width="15" height="20" viewBox="0 0 15 20" fill="none" xmlns="http://www.w3.org/2000/svg">
<path d="M2.77204 0.43881L3.84904 0.0948098C4.85704 -0.22719 5.93504 0.29381 6.36704 1.31181L7.22704 3.33981C7.60204 4.22281 7.39404 5.26181 6.71304 5.90781L4.82004 7.70581C4.93671 8.78181 5.29804 9.84081 5.90404 10.8828C6.48031 11.8907 7.25248 12.773 8.17504 13.4778L10.451 12.7178C11.313 12.4308 12.252 12.7618 12.781 13.5388L14.013 15.3488C14.629 16.2528 14.518 17.4988 13.755 18.2648L12.937 19.0858C12.123 19.9028 10.961 20.1998 9.88504 19.8638C7.34637 19.0718 5.01204 16.7208 2.88204 12.8108C0.749374 8.89414 -0.0032928 5.57148 0.624041 2.84281C0.888041 1.69481 1.70604 0.77981 2.77404 0.43881" fill="black"/>
</svg>
