<svg width="24" height="24" viewBox="0 0 32 32" fill="none" xmlns="http://www.w3.org/2000/svg">
<path d="M26.36 14.9998H20.9733C18.2933 14.9998 17 13.8132 17 11.3598V5.3065C17 2.85317 18.3067 1.6665 20.9733 1.6665H26.36C29.04 1.6665 30.3333 2.85317 30.3333 5.3065V11.3465C30.3333 13.8132 29.0267 14.9998 26.36 14.9998ZM20.9733 3.6665C19.1867 3.6665 19 4.17317 19 5.3065V11.3465C19 12.4932 19.1867 12.9865 20.9733 12.9865H26.36C28.1467 12.9865 28.3333 12.4798 28.3333 11.3465V5.3065C28.3333 4.15984 28.1467 3.6665 26.36 3.6665H20.9733Z" fill="#000000"/>
<path d="M26.36 30.3333H20.9733C18.2933 30.3333 17 29.0267 17 26.36V20.9733C17 18.2933 18.3067 17 20.9733 17H26.36C29.04 17 30.3333 18.3067 30.3333 20.9733V26.36C30.3333 29.0267 29.0267 30.3333 26.36 30.3333ZM20.9733 19C19.4 19 19 19.4 19 20.9733V26.36C19 27.9333 19.4 28.3333 20.9733 28.3333H26.36C27.9333 28.3333 28.3333 27.9333 28.3333 26.36V20.9733C28.3333 19.4 27.9333 19 26.36 19H20.9733Z" fill="#000000"/>
<path d="M11.0266 14.9998H5.63996C2.95996 14.9998 1.66663 13.8132 1.66663 11.3598V5.3065C1.66663 2.85317 2.97329 1.6665 5.63996 1.6665H11.0266C13.7066 1.6665 15 2.85317 15 5.3065V11.3465C15 13.8132 13.6933 14.9998 11.0266 14.9998ZM5.63996 3.6665C3.85329 3.6665 3.66663 4.17317 3.66663 5.3065V11.3465C3.66663 12.4932 3.85329 12.9865 5.63996 12.9865H11.0266C12.8133 12.9865 13 12.4798 13 11.3465V5.3065C13 4.15984 12.8133 3.6665 11.0266 3.6665H5.63996Z" fill="#000000"/>
<path d="M11.0266 30.3333H5.63996C2.95996 30.3333 1.66663 29.0267 1.66663 26.36V20.9733C1.66663 18.2933 2.97329 17 5.63996 17H11.0266C13.7066 17 15 18.3067 15 20.9733V26.36C15 29.0267 13.6933 30.3333 11.0266 30.3333ZM5.63996 19C4.06663 19 3.66663 19.4 3.66663 20.9733V26.36C3.66663 27.9333 4.06663 28.3333 5.63996 28.3333H11.0266C12.6 28.3333 13 27.9333 13 26.36V20.9733C13 19.4 12.6 19 11.0266 19H5.63996Z" fill="#000000"/>
</svg>
