<svg width="26" height="29" viewBox="0 0 26 29" fill="none" xmlns="http://www.w3.org/2000/svg">
<path d="M11 11.4277C11 11.2951 10.9473 11.1679 10.8536 11.0742C10.7598 10.9804 10.6326 10.9277 10.5 10.9277C10.3674 10.9277 10.2402 10.9804 10.1464 11.0742C10.0527 11.1679 10 11.2951 10 11.4277V22.4277C10 22.5603 10.0527 22.6875 10.1464 22.7813C10.2402 22.8751 10.3674 22.9277 10.5 22.9277C10.6326 22.9277 10.7598 22.8751 10.8536 22.7813C10.9473 22.6875 11 22.5603 11 22.4277V11.4277ZM15.5 10.9277C15.6326 10.9277 15.7598 10.9804 15.8536 11.0742C15.9473 11.1679 16 11.2951 16 11.4277V22.4277C16 22.5603 15.9473 22.6875 15.8536 22.7813C15.7598 22.8751 15.6326 22.9277 15.5 22.9277C15.3674 22.9277 15.2402 22.8751 15.1464 22.7813C15.0527 22.6875 15 22.5603 15 22.4277V11.4277C15 11.2951 15.0527 11.1679 15.1464 11.0742C15.2402 10.9804 15.3674 10.9277 15.5 10.9277ZM17.5 5.42773V5.92773H25.5C25.6326 5.92773 25.7598 5.98041 25.8536 6.07418C25.9473 6.16795 26 6.29513 26 6.42773C26 6.56034 25.9473 6.68752 25.8536 6.78129C25.7598 6.87506 25.6326 6.92773 25.5 6.92773H22.957L21.329 24.8347C21.2274 25.9532 20.7113 26.9933 19.882 27.7506C19.0526 28.508 17.9701 28.9278 16.847 28.9277H9.153C8.02991 28.9278 6.94737 28.508 6.11805 27.7506C5.28873 26.9933 4.77258 25.9532 4.671 24.8347L3.043 6.92773H0.5C0.367392 6.92773 0.240215 6.87506 0.146447 6.78129C0.0526785 6.68752 0 6.56034 0 6.42773C0 6.29513 0.0526785 6.16795 0.146447 6.07418C0.240215 5.98041 0.367392 5.92773 0.5 5.92773H8.5V5.42773C8.5 4.23426 8.97411 3.08967 9.81802 2.24575C10.6619 1.40184 11.8065 0.927734 13 0.927734C14.1935 0.927734 15.3381 1.40184 16.182 2.24575C17.0259 3.08967 17.5 4.23426 17.5 5.42773ZM9.5 5.42773V5.92773H16.5V5.42773C16.5 4.49948 16.1313 3.60924 15.4749 2.95286C14.8185 2.29648 13.9283 1.92773 13 1.92773C12.0717 1.92773 11.1815 2.29648 10.5251 2.95286C9.86875 3.60924 9.5 4.49948 9.5 5.42773ZM4.048 6.92773L5.668 24.7447C5.74708 25.6142 6.14829 26.4228 6.79288 27.0117C7.43747 27.6006 8.2789 27.9273 9.152 27.9277H16.846C17.7194 27.9278 18.5614 27.6013 19.2064 27.0124C19.8514 26.4234 20.2529 25.6146 20.332 24.7447L21.953 6.92773H4.048Z" fill="black"/>
</svg>
