<svg width="24" height="24" viewBox="0 0 24 24" fill="none" xmlns="http://www.w3.org/2000/svg">
<path d="M0 9H24V14.25H0V9Z" fill="#E6E7E8"/>
<path d="M20.25 3.375H3.75C1.26488 3.375 0 5.22188 0 7.5V9H24V7.5C24 5.22188 22.7351 3.375 20.25 3.375Z" fill="#FF9933"/>
<path d="M0 15.75C0 18.0281 1.26488 19.875 3.75 19.875H20.25C22.7351 19.875 24 18.0281 24 15.75V14.25H0V15.75Z" fill="#128807"/>
<path fill-rule="evenodd" clip-rule="evenodd" d="M12.1162 9.21875C12.5954 9.21875 13.0637 9.36088 13.4621 9.62715C13.8604 9.89342 14.1708 10.2719 14.354 10.7146C14.5372 11.1573 14.5849 11.6445 14.4912 12.1143C14.3974 12.5842 14.1664 13.0157 13.8273 13.3543C13.4883 13.6928 13.0564 13.9232 12.5864 14.0162C12.1164 14.1092 11.6293 14.0607 11.1869 13.8768C10.7444 13.693 10.3665 13.382 10.1008 12.9832C9.83515 12.5845 9.69375 12.1159 9.69449 11.6367C9.69558 10.9951 9.9512 10.3802 10.4052 9.92685C10.8593 9.47351 11.4746 9.21885 12.1162 9.21875ZM10.5019 10.2669C10.5435 10.3141 10.551 10.3648 10.5232 10.4071C10.5115 10.4266 10.4933 10.4415 10.4719 10.4491C10.4554 10.4553 10.4377 10.4573 10.4202 10.4551C10.4028 10.4528 10.3862 10.4464 10.3717 10.4364C10.3066 10.5297 10.2492 10.6283 10.2004 10.7311C10.257 10.7682 10.2757 10.8147 10.257 10.8661C10.247 10.8923 10.2271 10.9135 10.2017 10.9252C10.1763 10.937 10.1473 10.9384 10.1209 10.9291C10.0939 10.9831 10.0342 11.2111 10.0335 11.2591C10.0583 11.2639 10.0807 11.2773 10.0965 11.297C10.1132 11.3166 10.1218 11.3418 10.1205 11.3675C10.1134 11.438 10.0699 11.468 10.0035 11.4706C9.99299 11.5385 9.99412 11.7657 10.0046 11.8104C10.0751 11.8179 10.1122 11.8486 10.1182 11.9023C10.1265 11.96 10.0987 11.9975 10.0312 12.0237C10.0515 12.1351 10.0804 12.2446 10.1182 12.3519C10.1447 12.3439 10.173 12.3448 10.1989 12.3545C10.224 12.3654 10.2439 12.3841 10.2544 12.41C10.2637 12.4302 10.2656 12.4513 10.2607 12.4734C10.2572 12.4898 10.25 12.5052 10.2395 12.5184C10.229 12.5315 10.2156 12.542 10.2004 12.5491C10.2506 12.6534 10.3061 12.7516 10.3717 12.8439C10.4302 12.815 10.4812 12.8217 10.5157 12.863C10.5309 12.8799 10.5396 12.9018 10.5401 12.9245C10.5413 12.9413 10.5383 12.9581 10.5315 12.9736C10.5248 12.989 10.5143 13.0025 10.5011 13.013C10.5761 13.1007 10.656 13.181 10.743 13.2549C10.7921 13.2118 10.8431 13.205 10.887 13.2357C10.9069 13.2496 10.9207 13.268 10.9271 13.2905C10.9317 13.3064 10.9326 13.3232 10.9299 13.3395C10.9272 13.3559 10.9209 13.3714 10.9114 13.385C11.0062 13.4503 11.1041 13.5065 11.2065 13.5552C11.2462 13.4994 11.2916 13.4806 11.3407 13.4994C11.3621 13.5071 11.3807 13.5211 11.394 13.5395C11.4127 13.5695 11.4154 13.6025 11.4045 13.6378C11.5125 13.676 11.6212 13.7052 11.7337 13.7251C11.7559 13.6617 11.7941 13.6321 11.8451 13.6359C11.8687 13.6377 11.8901 13.6449 11.9089 13.661C11.9351 13.685 11.9475 13.7154 11.9452 13.7529C12.0607 13.7611 12.1736 13.7619 12.2857 13.7529C12.294 13.6805 12.3229 13.6441 12.381 13.6359C12.4031 13.6328 12.4255 13.6373 12.4447 13.6486C12.4588 13.6566 12.4709 13.6676 12.4801 13.6808C12.4893 13.6941 12.4954 13.7092 12.498 13.7251C12.6112 13.7041 12.7211 13.6753 12.8272 13.6374C12.8179 13.5665 12.8351 13.5241 12.8827 13.502C12.9001 13.4945 12.9191 13.4916 12.9379 13.4934C12.9574 13.4949 12.975 13.5009 12.9892 13.5136C13.0031 13.5252 13.0147 13.5395 13.0282 13.5541C13.1305 13.5059 13.2285 13.4493 13.3215 13.385C13.2832 13.325 13.3057 13.2676 13.3369 13.2421C13.3477 13.2328 13.3603 13.2258 13.3739 13.2214C13.3875 13.217 13.4019 13.2154 13.4161 13.2166C13.4304 13.2178 13.4442 13.2219 13.4569 13.2285C13.4695 13.2351 13.4808 13.2442 13.4899 13.2552C13.5765 13.181 13.6579 13.1004 13.7306 13.0137C13.6882 12.9654 13.68 12.9144 13.7111 12.8705C13.7237 12.8508 13.743 12.8364 13.7655 12.83C13.7815 12.8249 13.7984 12.8236 13.815 12.8261C13.8316 12.8287 13.8474 12.835 13.8611 12.8446C13.9267 12.7501 13.9837 12.6523 14.0325 12.5495C13.9777 12.5127 13.9579 12.4696 13.9744 12.4205C13.9804 12.3987 13.9936 12.3795 14.0119 12.3661C14.0264 12.356 14.0432 12.3493 14.0607 12.3467C14.0783 12.3441 14.0962 12.3456 14.1131 12.3511C14.1375 12.2983 14.1982 12.0755 14.2016 12.0215C14.1757 12.0168 14.1523 12.003 14.1356 11.9825C14.1269 11.9724 14.1203 11.9606 14.1164 11.9478C14.1125 11.935 14.1112 11.9215 14.1127 11.9082C14.1142 11.8845 14.124 11.862 14.1405 11.8449C14.1518 11.833 14.1656 11.8238 14.1809 11.8179C14.1962 11.8121 14.2127 11.8098 14.229 11.8111C14.2384 11.6977 14.2384 11.5837 14.229 11.4702C14.1574 11.4631 14.1232 11.4354 14.1139 11.3788C14.1096 11.3573 14.1128 11.3351 14.1229 11.3157C14.1306 11.3008 14.1417 11.2878 14.1553 11.2778C14.1689 11.2679 14.1846 11.2612 14.2012 11.2584C14.1815 11.1463 14.1523 11.0362 14.1139 10.9291C14.0445 10.9407 14.0017 10.922 13.9789 10.874C13.9729 10.8612 13.9696 10.8473 13.9691 10.8331C13.9686 10.819 13.9709 10.8049 13.9759 10.7917C13.9809 10.7785 13.9885 10.7664 13.9982 10.7561C14.0079 10.7458 14.0196 10.7376 14.0325 10.7319C13.9839 10.6288 13.9266 10.53 13.8611 10.4367C13.8007 10.4656 13.7516 10.4589 13.7171 10.4176C13.7018 10.4002 13.6933 10.3778 13.6931 10.3546C13.6924 10.3381 13.6956 10.3217 13.7023 10.3067C13.7091 10.2916 13.7193 10.2784 13.7321 10.268C13.6581 10.1813 13.5774 10.1005 13.491 10.0261C13.4392 10.0704 13.389 10.076 13.3462 10.0453C13.3268 10.0323 13.3126 10.0129 13.3061 9.9905C13.3014 9.97477 13.3004 9.95817 13.3032 9.94199C13.3059 9.9258 13.3123 9.91046 13.3219 9.89713C13.2284 9.83196 13.1297 9.77464 13.0267 9.72575C12.9881 9.78125 12.9446 9.79962 12.8955 9.78312C12.8737 9.77616 12.8547 9.76252 12.8411 9.74412C12.8312 9.72949 12.8249 9.71273 12.8227 9.69521C12.8205 9.67768 12.8224 9.65988 12.8284 9.64325C12.7214 9.60456 12.6112 9.57532 12.4991 9.55588C12.4777 9.61663 12.4391 9.64812 12.3892 9.64512C12.3659 9.64437 12.3435 9.63594 12.3255 9.62112C12.3121 9.60985 12.3017 9.59549 12.2951 9.57929C12.2885 9.56309 12.2859 9.54554 12.2876 9.52813C12.1743 9.5185 12.0604 9.51862 11.9471 9.5285C11.9392 9.596 11.91 9.63463 11.8601 9.64288C11.8377 9.64766 11.8143 9.64476 11.7937 9.63462C11.7784 9.62704 11.7651 9.6159 11.7549 9.60214C11.7447 9.58838 11.738 9.57239 11.7352 9.5555C11.6232 9.57589 11.5129 9.60536 11.4056 9.64362C11.4176 9.71 11.3989 9.7535 11.3531 9.77713C11.3332 9.78725 11.3122 9.79138 11.289 9.78725C11.2715 9.78487 11.255 9.77798 11.241 9.76726C11.227 9.75654 11.216 9.74237 11.2091 9.72613C11.145 9.75013 10.941 9.86825 10.914 9.89787C10.9417 9.95337 10.9354 10.0025 10.8971 10.0378C10.8863 10.0473 10.8737 10.0546 10.86 10.0591C10.8463 10.0637 10.8319 10.0655 10.8175 10.0644C10.8031 10.0633 10.7891 10.0593 10.7763 10.0526C10.7635 10.046 10.7522 10.0369 10.743 10.0258C10.6565 10.0997 10.5758 10.1803 10.5019 10.2669Z" fill="#010088"/>
<path fill-rule="evenodd" clip-rule="evenodd" d="M13.155 13.4351C13.1505 13.4302 13.146 13.4269 13.1426 13.4216C12.9246 13.0883 12.706 12.7555 12.4867 12.423C12.4819 12.4136 12.4762 12.4042 12.4717 12.3937C12.4207 12.2749 12.3709 12.156 12.3187 12.0375C12.317 12.0314 12.3146 12.0255 12.3116 12.0199C12.2906 12.0277 12.2715 12.0367 12.249 12.0454L12.2565 12.0645C12.3034 12.1796 12.3484 12.2951 12.396 12.4102C12.4087 12.441 12.414 12.4732 12.4207 12.5055C12.4575 12.6776 12.492 12.8505 12.5291 13.023L12.6559 13.6391C12.6565 13.6406 12.6567 13.6422 12.6565 13.6438C12.6563 13.6453 12.6557 13.6468 12.6547 13.6481L12.6495 13.635C12.5467 13.3204 12.4414 13.0061 12.3382 12.6915C12.3176 12.63 12.2992 12.5692 12.2767 12.5077C12.2662 12.477 12.2629 12.4455 12.258 12.4136C12.2449 12.3244 12.2336 12.2344 12.219 12.1451C12.2171 12.1237 12.2137 12.1027 12.2107 12.0821C12.2098 12.0735 12.2084 12.065 12.2066 12.0566C12.1841 12.0589 12.1635 12.0619 12.141 12.0645C12.141 12.0735 12.1417 12.0829 12.1425 12.0922C12.1556 12.2021 12.1669 12.3124 12.1826 12.4219C12.1909 12.4819 12.1867 12.5407 12.1834 12.6007C12.1811 12.6514 12.1777 12.702 12.1755 12.753C12.1687 12.8557 12.1635 12.9581 12.1564 13.0605L12.1451 13.272C12.1387 13.392 12.1312 13.5116 12.1249 13.6309C12.1219 13.6646 12.1211 13.6991 12.1177 13.7321L12.1087 13.6185L12.0971 13.3725L12.0836 13.1531C12.0799 13.0781 12.075 13.0035 12.0709 12.9285C12.0675 12.8794 12.0656 12.8302 12.0626 12.7819C12.0585 12.7042 12.0536 12.6266 12.0499 12.5497C12.0462 12.5088 12.0472 12.4675 12.0529 12.4267C12.0607 12.3712 12.0667 12.3146 12.0735 12.2584C12.081 12.2029 12.0874 12.147 12.0941 12.0922C12.0949 12.0836 12.0949 12.0746 12.096 12.0645L12.0304 12.0559C12.0285 12.0709 12.0251 12.0855 12.0225 12.1005C12.0069 12.215 11.9909 12.3295 11.9745 12.444C11.97 12.4886 11.9524 12.5299 11.9374 12.5715C11.8219 12.9232 11.706 13.2754 11.589 13.6267C11.5864 13.6331 11.5852 13.6391 11.5804 13.6451C11.5804 13.6406 11.5804 13.6372 11.5822 13.6331C11.6306 13.3961 11.6794 13.1587 11.7296 12.9217C11.7619 12.7642 11.7952 12.6071 11.8271 12.45L11.8361 12.4241C11.8845 12.3052 11.931 12.1852 11.9805 12.0664C11.9822 12.0593 11.9847 12.0526 11.988 12.0461C11.9673 12.0373 11.9466 12.0286 11.9257 12.0202C11.9231 12.027 11.919 12.0326 11.9167 12.0394C11.865 12.1586 11.8144 12.2782 11.7626 12.3975C11.7594 12.4064 11.7554 12.4151 11.7506 12.4234C11.5293 12.7586 11.3087 13.0942 11.0887 13.4302C11.0857 13.4353 11.0818 13.4397 11.0771 13.4434C11.079 13.4374 11.0824 13.4325 11.0846 13.4272L11.6269 12.3521C11.6315 12.3423 11.6373 12.3332 11.6441 12.3247L11.8759 12.0139C11.8807 12.0086 11.8837 12.0037 11.8882 11.9981C11.8691 11.9842 11.8537 11.9715 11.8346 11.9569C11.8305 11.9617 11.8267 11.9659 11.8234 11.9707C11.7424 12.0724 11.6625 12.1747 11.5834 12.276C11.5744 12.2854 11.5661 12.2951 11.556 12.3037C11.2605 12.5681 10.965 12.831 10.6684 13.0957C10.6624 13.1006 10.6564 13.1059 10.6489 13.1092C10.6522 13.1059 10.6541 13.1017 10.6564 13.0991C10.8997 12.8272 11.1412 12.5557 11.3835 12.2839C11.3974 12.2689 11.4112 12.2539 11.4244 12.2377C11.4521 12.2055 11.4832 12.177 11.517 12.1515L11.7862 11.9396C11.7922 11.9351 11.7967 11.9302 11.8035 11.9257C11.7902 11.9078 11.7764 11.8901 11.7622 11.8729C11.7562 11.8766 11.7514 11.8804 11.7457 11.8845C11.6426 11.9617 11.5391 12.0382 11.436 12.1159C11.4244 12.1246 11.4121 12.1322 11.3992 12.1387C11.0471 12.3165 10.6931 12.4942 10.3402 12.672C10.3335 12.675 10.3271 12.6787 10.3192 12.6787L10.3335 12.6686L10.992 12.2374C11.1067 12.162 11.2219 12.0866 11.3359 12.0109C11.3456 12.0052 11.3557 12.0004 11.3644 11.9959C11.484 11.9452 11.6032 11.8942 11.7217 11.8432C11.7274 11.841 11.733 11.8387 11.7397 11.8354L11.7146 11.7735C11.7075 11.7754 11.703 11.7772 11.6974 11.7791C11.5759 11.8275 11.4555 11.8766 11.3332 11.9246C11.3081 11.934 11.2807 11.9385 11.2541 11.9441L10.4347 12.1144C10.3316 12.1365 10.2266 12.1582 10.1231 12.1796C10.1189 12.1806 10.1146 12.1801 10.1107 12.1781C10.1392 12.1691 10.1677 12.159 10.1959 12.1496C10.5499 12.033 10.9035 11.9167 11.2564 11.7994C11.2841 11.79 11.3137 11.7874 11.3419 11.7829C11.4559 11.7671 11.5695 11.7506 11.6824 11.7345C11.6893 11.7333 11.6962 11.7318 11.703 11.73C11.7007 11.7082 11.6974 11.6865 11.6955 11.664L11.6407 11.67L11.4142 11.6974C11.3719 11.703 11.3299 11.7075 11.2882 11.7127C11.2781 11.7139 11.2684 11.7142 11.2586 11.7139L11.0201 11.7L10.8791 11.6921L10.6361 11.6779L10.2817 11.6584C10.1962 11.6539 10.113 11.6482 10.0279 11.6422C10.0414 11.6411 10.0564 11.6389 10.071 11.6389L10.3616 11.6224L10.7456 11.6006L11.0636 11.5826L11.2631 11.5706C11.271 11.5702 11.2804 11.5714 11.2882 11.5721L11.517 11.5995L11.679 11.619H11.6955C11.6974 11.5976 11.7007 11.5774 11.703 11.5541C11.6891 11.5511 11.6734 11.5489 11.6595 11.5462C11.5594 11.5324 11.46 11.5177 11.3599 11.5031C11.3391 11.5007 11.3183 11.498 11.2976 11.4949C11.2861 11.4933 11.2748 11.4907 11.2639 11.487C10.9657 11.3891 10.6695 11.2905 10.3717 11.1926C10.2889 11.1654 10.2061 11.1379 10.1235 11.1101C10.1163 11.1082 10.1096 11.105 10.1036 11.1007L10.1557 11.1112L10.7921 11.2436C10.9624 11.2792 11.1352 11.3145 11.3055 11.3505C11.3157 11.3527 11.3258 11.3559 11.3355 11.3599C11.4555 11.4071 11.5744 11.4559 11.6955 11.5039L11.7135 11.511C11.7217 11.4904 11.7307 11.4705 11.7397 11.4491C11.7336 11.4455 11.7272 11.4423 11.7206 11.4397C11.6014 11.3895 11.4825 11.3381 11.3636 11.2867C11.3543 11.2828 11.3453 11.2781 11.3366 11.2729C11.0002 11.0527 10.6654 10.8315 10.3286 10.611C10.3242 10.6085 10.3206 10.6047 10.3185 10.6001L10.332 10.6076C10.6672 10.7764 11.0029 10.9451 11.3389 11.1135C11.3944 11.1412 11.4484 11.1746 11.4979 11.2125C11.5796 11.2759 11.6629 11.3366 11.7461 11.3989C11.7517 11.403 11.7566 11.4067 11.7626 11.4105L11.8039 11.3584L11.7892 11.3456L11.4844 11.106C11.4739 11.0977 11.4656 11.0891 11.4566 11.0801C11.1911 10.7827 10.9252 10.485 10.6605 10.1876C10.6567 10.1845 10.6537 10.1805 10.6519 10.176C10.6597 10.1767 10.6627 10.182 10.6661 10.1854C10.827 10.3279 10.9864 10.4704 11.1461 10.6129L11.5594 10.9811C11.5669 10.9879 11.574 10.9961 11.5807 11.0036L11.8174 11.3044C11.8234 11.3111 11.8279 11.3182 11.8346 11.3272L11.889 11.2856C11.8856 11.2804 11.8811 11.2762 11.8785 11.2714C11.8012 11.1682 11.7244 11.0647 11.6464 10.962C11.6383 10.9499 11.6309 10.9374 11.6242 10.9245C11.4442 10.5701 11.2657 10.2142 11.0869 9.85948C11.0835 9.85273 11.0801 9.84748 11.0794 9.84036C11.0827 9.84411 11.0861 9.84748 11.0884 9.85086L11.4716 10.4366L11.7427 10.8491C11.7521 10.8649 11.7626 10.8814 11.7686 10.8986C11.8192 11.0141 11.868 11.13 11.9171 11.2455C11.9205 11.2507 11.9227 11.2564 11.9261 11.2631L11.9884 11.2372L11.9816 11.2215C11.9347 11.1045 11.889 10.9875 11.8414 10.8712C11.8282 10.8416 11.8234 10.8109 11.817 10.7801C11.7761 10.5847 11.7367 10.389 11.6959 10.1932C11.6557 10.005 11.6175 9.81823 11.5781 9.62923C11.5774 9.62811 11.5781 9.62661 11.5796 9.62286L11.6126 9.72298C11.7304 10.0766 11.847 10.431 11.9625 10.7854C11.9722 10.8131 11.9756 10.8435 11.9797 10.8724C11.9936 10.9706 12.0075 11.0696 12.0232 11.1686C12.0259 11.1874 12.027 11.2061 12.0307 11.2267L12.096 11.2185V11.1937C12.0866 11.1154 12.0765 11.0366 12.0675 10.9586C12.0619 10.9129 12.0577 10.8682 12.0514 10.8236C12.0476 10.7936 12.0476 10.7632 12.0514 10.7332C12.054 10.6822 12.0577 10.6316 12.06 10.581L12.0784 10.2754C12.0817 10.2206 12.0829 10.1651 12.0862 10.1104C12.0911 10.0391 12.0949 9.96673 12.099 9.89511C12.1024 9.84261 12.105 9.78973 12.1072 9.73761C12.1102 9.67573 12.1151 9.61423 12.1204 9.55273C12.1219 9.56961 12.1226 9.58686 12.1234 9.60486C12.1286 9.68023 12.1324 9.75561 12.1369 9.83136L12.1564 10.1749L12.168 10.3676C12.174 10.479 12.1792 10.5907 12.1856 10.7021C12.1875 10.719 12.1882 10.7347 12.1894 10.7512C12.1942 10.7947 12.1856 10.8379 12.1819 10.881L12.1579 11.0775C12.1541 11.1146 12.1485 11.1517 12.144 11.1892C12.1432 11.1982 12.1432 11.208 12.1406 11.2189C12.1639 11.2222 12.1849 11.2245 12.2081 11.2275C12.2115 11.2114 12.213 11.1964 12.2156 11.1806C12.2336 11.0587 12.2509 10.9369 12.2681 10.8142C12.2696 10.8052 12.2734 10.7959 12.2756 10.7865C12.3979 10.4197 12.5179 10.0526 12.6394 9.68511C12.6454 9.66823 12.6499 9.65211 12.6592 9.63598C12.6582 9.64454 12.6569 9.65305 12.6551 9.66148C12.6004 9.92698 12.5434 10.1917 12.489 10.4565C12.4646 10.5806 12.4387 10.7051 12.4129 10.8292C12.411 10.8395 12.4078 10.8495 12.4031 10.8589L12.2584 11.2207C12.2557 11.226 12.2539 11.2316 12.2512 11.2384C12.2737 11.247 12.2921 11.2556 12.3139 11.2642L12.3225 11.2462L12.4736 10.8911C12.4796 10.8791 12.4841 10.8675 12.492 10.8577L13.1464 9.85948C13.1505 9.85423 13.1539 9.84898 13.1602 9.84523C13.1576 9.85048 13.1557 9.85573 13.1524 9.86098L12.6142 10.9297C12.6086 10.9399 12.603 10.95 12.5962 10.959C12.5182 11.0629 12.4399 11.1667 12.363 11.2699C12.3593 11.2758 12.3551 11.2814 12.3506 11.2867L12.4039 11.3284C12.4081 11.3239 12.412 11.3191 12.4155 11.3141C12.495 11.2129 12.5741 11.1112 12.6547 11.01C12.6636 10.9986 12.6735 10.988 12.6844 10.9785C12.9806 10.7137 13.2772 10.4494 13.5739 10.1854C13.5787 10.1812 13.5821 10.1771 13.59 10.1749L13.5802 10.1869C13.4591 10.3237 13.338 10.4599 13.215 10.596C13.0687 10.7591 12.9244 10.9219 12.7792 11.085C12.7717 11.0932 12.7627 11.1004 12.7549 11.1071L12.45 11.3467L12.435 11.3587C12.4492 11.3767 12.462 11.394 12.477 11.412L12.4931 11.4L12.8055 11.166C12.8135 11.1603 12.8217 11.155 12.8302 11.1502C13.1902 10.9695 13.548 10.7895 13.9057 10.6087C13.9117 10.6061 13.9166 10.6039 13.923 10.6039C13.9065 10.6147 13.8911 10.6252 13.8746 10.6354C13.551 10.848 13.2274 11.0606 12.9026 11.2732C12.8936 11.2785 12.8854 11.2837 12.8756 11.2879C12.756 11.3396 12.6352 11.3906 12.5167 11.442L12.4976 11.4495C12.5077 11.4705 12.5149 11.4904 12.5239 11.5114L12.5411 11.5057C12.6615 11.4581 12.7811 11.4082 12.9026 11.3621C12.9326 11.3501 12.9656 11.3449 12.9982 11.3381L13.5506 11.2234C13.7224 11.1881 13.8926 11.1521 14.0647 11.1165C14.0805 11.1131 14.0951 11.1097 14.1116 11.1067C14.1157 11.1067 14.1195 11.106 14.1255 11.1082L14.073 11.1255C13.7066 11.2466 13.3414 11.3674 12.975 11.487C12.9472 11.4967 12.9165 11.4994 12.8876 11.5039C12.8055 11.5162 12.7245 11.5271 12.6446 11.5387C12.6154 11.5429 12.5865 11.5474 12.5572 11.5511L12.5359 11.5549C12.5381 11.577 12.5415 11.5976 12.543 11.6216L12.5996 11.6156L12.8021 11.5916C12.8527 11.5852 12.9056 11.5781 12.9585 11.5732C12.9821 11.5714 13.0061 11.5736 13.0305 11.5747C13.0819 11.577 13.1332 11.5815 13.1869 11.5837L13.4899 11.6017C13.5349 11.6044 13.5799 11.6062 13.6264 11.6092L13.9354 11.6269C14.0085 11.6314 14.0839 11.6347 14.1566 11.6392C14.1747 11.6403 14.1927 11.6419 14.2106 11.6441L14.1559 11.6486L13.929 11.661L13.6481 11.6775L13.4362 11.6887C13.3387 11.6947 13.2394 11.7004 13.1411 11.7067C13.0871 11.709 13.0316 11.7142 12.9772 11.7146C12.9461 11.7154 12.9135 11.7094 12.8831 11.706C12.8165 11.6982 12.7498 11.6902 12.6832 11.682L12.5554 11.6666H12.543C12.5415 11.6884 12.5381 11.7097 12.5359 11.7326C12.668 11.7522 12.8003 11.7713 12.9326 11.79C12.9716 11.7949 13.0057 11.8102 13.0425 11.8219L14.109 12.174C14.1159 12.1754 14.1224 12.1784 14.1281 12.1826C14.1191 12.1811 14.1105 12.1796 14.1015 12.1789L13.1752 11.9857L12.9307 11.9347C12.9229 11.9325 12.9124 11.9295 12.9037 11.9254C12.7834 11.8777 12.6626 11.829 12.5415 11.7806L12.5254 11.775C12.5166 11.7955 12.5075 11.8159 12.498 11.8361L12.5179 11.8455C12.6375 11.8965 12.7564 11.9471 12.8752 11.9985C12.8846 12.0026 12.894 12.0075 12.9037 12.0142L13.902 12.6682C13.9069 12.672 13.9132 12.6765 13.9174 12.6836C13.9125 12.6806 13.9069 12.6787 13.9027 12.6757L13.3826 12.4147C13.2011 12.3225 13.0181 12.231 12.8347 12.1387C12.823 12.1329 12.8121 12.1258 12.8021 12.1174C12.699 12.0405 12.5947 11.9632 12.4916 11.8856C12.487 11.8817 12.4821 11.8782 12.477 11.8751C12.4627 11.8924 12.45 11.9092 12.435 11.9272L12.4492 11.9385C12.5497 12.0187 12.6521 12.099 12.753 12.1789C12.7645 12.1871 12.7749 12.1966 12.7841 12.2074L13.5787 13.0965C13.582 13.1009 13.5845 13.1059 13.5862 13.1111C13.5821 13.1066 13.5765 13.1036 13.5724 13.1002C13.2742 12.8336 12.9757 12.5685 12.6769 12.3022C12.6701 12.2962 12.664 12.2894 12.6589 12.282L12.4159 11.9722C12.4125 11.9674 12.4084 11.9629 12.4042 11.958C12.387 11.9722 12.3701 11.985 12.3529 12C12.3544 12.0045 12.3577 12.0094 12.3607 12.0139L12.5966 12.3281C12.6033 12.3373 12.6094 12.3469 12.6146 12.357C12.7935 12.7117 12.972 13.0672 13.1505 13.4224C13.1534 13.4272 13.1553 13.4325 13.1561 13.4381H13.155V13.4351Z" fill="#010088"/>
<path fill-rule="evenodd" clip-rule="evenodd" d="M13.1512 13.4351C13.155 13.4388 13.1572 13.4429 13.1602 13.4463C13.1584 13.4471 13.1584 13.4482 13.1561 13.4486C13.1554 13.4433 13.1527 13.4399 13.152 13.4351H13.1512Z" fill="#010088"/>
</svg>
