<svg width="16" height="18" viewBox="0 0 16 18" fill="none" xmlns="http://www.w3.org/2000/svg">
<path d="M1.21875 8.39062C1.21875 8.25802 1.16607 8.13084 1.0723 8.03707C0.978535 7.9433 0.851358 7.89062 0.71875 7.89062C0.586142 7.89062 0.458965 7.9433 0.365197 8.03707C0.271429 8.13084 0.21875 8.25802 0.21875 8.39062C0.218557 9.76289 0.731359 11.0857 1.65647 12.0992C2.58158 13.1128 3.85217 13.7439 5.21875 13.8686V15.8906C5.21875 16.0232 5.27143 16.1504 5.3652 16.2442C5.45896 16.3379 5.58614 16.3906 5.71875 16.3906C5.85136 16.3906 5.97854 16.3379 6.0723 16.2442C6.16607 16.1504 6.21875 16.0232 6.21875 15.8906V15.1846C5.88891 14.4649 5.71836 13.6824 5.71875 12.8906C4.52528 12.8906 3.38068 12.4165 2.53677 11.5726C1.69286 10.7287 1.21875 9.5841 1.21875 8.39062ZM8.71875 3.39062V7.99063C8.04553 8.33414 7.45033 8.81271 6.9703 9.39649C6.49027 9.98027 6.13571 10.6567 5.92875 11.3836C5.85808 11.3883 5.78808 11.3906 5.71875 11.3906C4.9231 11.3906 4.16004 11.0746 3.59743 10.5119C3.03482 9.94934 2.71875 9.18627 2.71875 8.39062V3.39062C2.71875 2.59498 3.03482 1.83191 3.59743 1.2693C4.16004 0.706696 4.9231 0.390625 5.71875 0.390625C6.5144 0.390625 7.27746 0.706696 7.84007 1.2693C8.40268 1.83191 8.71875 2.59498 8.71875 3.39062ZM13.7188 12.8906C13.7188 13.5537 13.4554 14.1896 12.9865 14.6584C12.5177 15.1272 11.8818 15.3906 11.2188 15.3906C10.5557 15.3906 9.91982 15.1272 9.45098 14.6584C8.98214 14.1896 8.71875 13.5537 8.71875 12.8906C8.71875 12.2276 8.98214 11.5917 9.45098 11.1229C9.91982 10.654 10.5557 10.3906 11.2188 10.3906C11.8818 10.3906 12.5177 10.654 12.9865 11.1229C13.4554 11.5917 13.7188 12.2276 13.7188 12.8906ZM15.7188 12.8906C15.7188 14.0841 15.2446 15.2287 14.4007 16.0726C13.5568 16.9165 12.4122 17.3906 11.2188 17.3906C10.0253 17.3906 8.88068 16.9165 8.03677 16.0726C7.19286 15.2287 6.71875 14.0841 6.71875 12.8906C6.71875 11.6972 7.19286 10.5526 8.03677 9.70864C8.88068 8.86473 10.0253 8.39062 11.2188 8.39062C12.4122 8.39062 13.5568 8.86473 14.4007 9.70864C15.2446 10.5526 15.7188 11.6972 15.7188 12.8906ZM7.71875 12.8906C7.71875 13.3503 7.80928 13.8054 7.98517 14.23C8.16106 14.6547 8.41887 15.0405 8.74388 15.3655C9.06888 15.6905 9.45472 15.9483 9.87936 16.1242C10.304 16.3001 10.7591 16.3906 11.2188 16.3906C11.6784 16.3906 12.1335 16.3001 12.5581 16.1242C12.9828 15.9483 13.3686 15.6905 13.6936 15.3655C14.0186 15.0405 14.2764 14.6547 14.4523 14.23C14.6282 13.8054 14.7188 13.3503 14.7188 12.8906C14.7188 11.9624 14.35 11.0721 13.6936 10.4158C13.0372 9.75937 12.147 9.39062 11.2188 9.39062C10.2905 9.39062 9.40025 9.75937 8.74388 10.4158C8.0875 11.0721 7.71875 11.9624 7.71875 12.8906Z" fill="black"/>
</svg>
