<svg width="24" height="24" viewBox="0 0 24 24" fill="none" xmlns="http://www.w3.org/2000/svg">
<g clip-path="url(#clip0_403_9069)">
<path d="M21.6733 18.5531C21.0305 17.98 20.4676 17.323 20 16.5998C19.489 15.6017 19.183 14.5114 19.1 13.3931V10.0998C19.1044 8.34351 18.4673 6.64609 17.3085 5.32642C16.1496 4.00675 14.5488 3.15568 12.8067 2.93311V2.07311C12.8067 1.83706 12.7129 1.61069 12.546 1.44378C12.3791 1.27687 12.1527 1.18311 11.9167 1.18311C11.6806 1.18311 11.4542 1.27687 11.2873 1.44378C11.1204 1.61069 11.0267 1.83706 11.0267 2.07311V2.94644C9.30016 3.18506 7.71864 4.04128 6.57501 5.35651C5.43138 6.67174 4.80315 8.35687 4.80666 10.0998V13.3931C4.7237 14.5114 4.41768 15.6017 3.90666 16.5998C3.44725 17.3213 2.89346 17.9783 2.25999 18.5531C2.18888 18.6156 2.13189 18.6925 2.0928 18.7787C2.05372 18.8649 2.03345 18.9585 2.03333 19.0531V19.9598C2.03333 20.1366 2.10356 20.3062 2.22859 20.4312C2.35361 20.5562 2.52318 20.6264 2.69999 20.6264H21.2333C21.4101 20.6264 21.5797 20.5562 21.7047 20.4312C21.8298 20.3062 21.9 20.1366 21.9 19.9598V19.0531C21.8999 18.9585 21.8796 18.8649 21.8405 18.7787C21.8014 18.6925 21.7444 18.6156 21.6733 18.5531ZM3.41999 19.2931C4.04012 18.6938 4.58623 18.0223 5.04666 17.2931C5.69052 16.0877 6.06578 14.7573 6.14666 13.3931V10.0998C6.12022 9.31846 6.25127 8.53982 6.53202 7.81022C6.81277 7.08061 7.23747 6.41496 7.78082 5.85291C8.32418 5.29085 8.97509 4.84388 9.69478 4.53862C10.4145 4.23336 11.1882 4.07604 11.97 4.07604C12.7517 4.07604 13.5255 4.23336 14.2452 4.53862C14.9649 4.84388 15.6158 5.29085 16.1592 5.85291C16.7025 6.41496 17.1272 7.08061 17.408 7.81022C17.6887 8.53982 17.8198 9.31846 17.7933 10.0998V13.3931C17.8742 14.7573 18.2495 16.0877 18.8933 17.2931C19.3538 18.0223 19.8999 18.6938 20.52 19.2931H3.41999Z" fill="white"/>
<path d="M12 22.8535C12.4199 22.8438 12.8229 22.6859 13.1377 22.4078C13.4525 22.1296 13.6587 21.7491 13.72 21.3335H10.2133C10.2763 21.7604 10.4922 22.1498 10.8209 22.4294C11.1495 22.709 11.5685 22.8597 12 22.8535Z" fill="white"/>
</g>
<defs>
<clipPath id="clip0_403_9069">
<rect width="24" height="24" fill="white"/>
</clipPath>
</defs>
</svg>
