<svg width="16" height="17" viewBox="0 0 16 17" fill="none" xmlns="http://www.w3.org/2000/svg">
<g clip-path="url(#clip0_360_10731)">
<path d="M13.35 16.5H2.65C1.74 16.5 1 15.76 1 14.85V7.15C1 6.24 1.74 5.5 2.65 5.5H13.35C14.26 5.5 15 6.24 15 7.15V14.84C15 15.75 14.26 16.49 13.35 16.49V16.5ZM2.65 6.5C2.29 6.5 2 6.79 2 7.15V14.84C2 15.2 2.29 15.49 2.65 15.49H13.35C13.71 15.49 14 15.2 14 14.84V7.15C14 6.79 13.71 6.5 13.35 6.5H2.65Z" fill="black"/>
<path d="M12.54 6.5H3.45996V5.04C3.45996 2.54 5.49996 0.5 7.99996 0.5C10.5 0.5 12.54 2.54 12.54 5.04V6.5ZM4.45996 5.5H11.54V5.04C11.54 3.09 9.94996 1.5 7.99996 1.5C6.04996 1.5 4.45996 3.09 4.45996 5.04V5.5Z" fill="black"/>
<path d="M12 12C12.5523 12 13 11.5523 13 11C13 10.4477 12.5523 10 12 10C11.4477 10 11 10.4477 11 11C11 11.5523 11.4477 12 12 12Z" fill="black"/>
<path d="M8 12C8.55228 12 9 11.5523 9 11C9 10.4477 8.55228 10 8 10C7.44772 10 7 10.4477 7 11C7 11.5523 7.44772 12 8 12Z" fill="black"/>
<path d="M4 12C4.55228 12 5 11.5523 5 11C5 10.4477 4.55228 10 4 10C3.44772 10 3 10.4477 3 11C3 11.5523 3.44772 12 4 12Z" fill="black"/>
</g>
<defs>
<clipPath id="clip0_360_10731">
<rect width="16" height="16" fill="white" transform="translate(0 0.5)"/>
</clipPath>
</defs>
</svg>
