<svg width="24" height="24" viewBox="0 0 24 24" fill="none" xmlns="http://www.w3.org/2000/svg">
<path d="M6.00003 19.23C5.66136 19.23 5.37136 19.11 5.13003 18.87C4.8887 18.63 4.7687 18.34 4.77003 18C4.77136 17.66 4.89136 17.37 5.13003 17.13C5.3687 16.89 5.6587 16.77 6.00003 16.77C6.34136 16.77 6.63136 16.89 6.87003 17.13C7.1087 17.37 7.2287 17.66 7.23003 18C7.23136 18.34 7.11136 18.63 6.87003 18.87C6.6287 19.11 6.3387 19.23 6.00003 19.23ZM6.00003 13.23C5.66136 13.23 5.37136 13.11 5.13003 12.87C4.8887 12.63 4.7687 12.34 4.77003 12C4.77136 11.66 4.89136 11.37 5.13003 11.13C5.3687 10.89 5.6587 10.77 6.00003 10.77C6.34136 10.77 6.63136 10.89 6.87003 11.13C7.1087 11.37 7.2287 11.66 7.23003 12C7.23136 12.34 7.11136 12.63 6.87003 12.87C6.6287 13.11 6.3387 13.23 6.00003 13.23ZM6.00003 7.23002C5.66136 7.23002 5.37136 7.11002 5.13003 6.87002C4.8887 6.63002 4.7687 6.34002 4.77003 6.00002C4.77136 5.66002 4.89136 5.37002 5.13003 5.13002C5.3687 4.89002 5.6587 4.77002 6.00003 4.77002C6.34136 4.77002 6.63136 4.89002 6.87003 5.13002C7.1087 5.37002 7.2287 5.66002 7.23003 6.00002C7.23136 6.34002 7.11136 6.63002 6.87003 6.87002C6.6287 7.11002 6.3387 7.23002 6.00003 7.23002ZM12 7.23002C11.6614 7.23002 11.3714 7.11002 11.13 6.87002C10.8887 6.63002 10.7687 6.34002 10.77 6.00002C10.7714 5.66002 10.8914 5.37002 11.13 5.13002C11.3687 4.89002 11.6587 4.77002 12 4.77002C12.3414 4.77002 12.6314 4.89002 12.87 5.13002C13.1087 5.37002 13.2287 5.66002 13.23 6.00002C13.2314 6.34002 13.1114 6.63002 12.87 6.87002C12.6287 7.11002 12.3387 7.23002 12 7.23002ZM18 7.23002C17.6614 7.23002 17.3714 7.11002 17.13 6.87002C16.8887 6.63002 16.7687 6.34002 16.77 6.00002C16.7714 5.66002 16.8914 5.37002 17.13 5.13002C17.3687 4.89002 17.6587 4.77002 18 4.77002C18.3414 4.77002 18.6314 4.89002 18.87 5.13002C19.1087 5.37002 19.2287 5.66002 19.23 6.00002C19.2314 6.34002 19.1114 6.63002 18.87 6.87002C18.6287 7.11002 18.3387 7.23002 18 7.23002ZM12 13.23C11.6614 13.23 11.3714 13.11 11.13 12.87C10.8887 12.63 10.7687 12.34 10.77 12C10.7714 11.66 10.8914 11.37 11.13 11.13C11.3687 10.89 11.6587 10.77 12 10.77C12.3414 10.77 12.6314 10.89 12.87 11.13C13.1087 11.37 13.2287 11.66 13.23 12C13.2314 12.34 13.1114 12.63 12.87 12.87C12.6287 13.11 12.3387 13.23 12 13.23ZM13.23 19.23V17.021L18.564 11.714C18.6627 11.6154 18.7644 11.5487 18.869 11.514C18.9737 11.4794 19.0787 11.462 19.184 11.462C19.2987 11.462 19.4114 11.4834 19.522 11.526C19.6327 11.5694 19.733 11.6337 19.823 11.719L20.748 12.664C20.83 12.7627 20.8927 12.865 20.936 12.971C20.9787 13.0777 21 13.1844 21 13.291C21 13.397 20.9797 13.5044 20.939 13.613C20.8984 13.7217 20.8347 13.825 20.748 13.923L15.44 19.231L13.23 19.23ZM14.116 18.346H15.066L18.533 14.873L18.063 14.398L17.608 13.909L14.116 17.396V18.346ZM18.063 14.398L17.608 13.909L18.533 14.873L18.063 14.398Z" fill="black"/>
</svg>
