<svg width="17" height="17" viewBox="0 0 17 17" fill="none" xmlns="http://www.w3.org/2000/svg">
<path d="M16.9132 14.383C16.9174 14.8436 16.767 15.2294 16.4618 15.5402C16.1566 15.851 15.7734 16.0088 15.3121 16.0137L2.54461 16.1307C2.08397 16.1349 1.69823 15.9841 1.38742 15.6783C1.0766 15.3725 0.918756 14.9896 0.913875 14.5296L0.855211 8.12684L1.85517 8.11768L1.91383 14.5204C1.91524 14.6744 1.98054 14.8151 2.10971 14.9426C2.23888 15.0701 2.3808 15.1328 2.53545 15.1307L15.3039 15.0138C15.4572 15.0124 15.5976 14.9471 15.7251 14.8179C15.8526 14.6887 15.9153 14.5471 15.9133 14.3931L15.8546 7.98942L16.8545 7.98025L16.9132 14.383ZM12.353 3.57831L11.6395 4.28688L9.29933 1.98922L9.38076 10.8758L8.3808 10.885L8.29938 1.99838L6.00073 4.33954L5.27633 3.64415L8.78175 0.0728838L12.353 3.57831Z" fill="black"/>
</svg>
