<svg width="24" height="25" viewBox="0 0 24 25" fill="none" xmlns="http://www.w3.org/2000/svg">
<path d="M23.2052 12.6727C22.3231 10.391 20.7917 8.4177 18.8003 6.9968C16.8089 5.5759 14.4448 4.76966 12.0002 4.67773C9.55556 4.76966 7.19146 5.5759 5.20007 6.9968C3.20868 8.4177 1.67729 10.391 0.795169 12.6727C0.735595 12.8375 0.735595 13.018 0.795169 13.1827C1.67729 15.4645 3.20868 17.4378 5.20007 18.8587C7.19146 20.2796 9.55556 21.0858 12.0002 21.1777C14.4448 21.0858 16.8089 20.2796 18.8003 18.8587C20.7917 17.4378 22.3231 15.4645 23.2052 13.1827C23.2647 13.018 23.2647 12.8375 23.2052 12.6727ZM12.0002 19.6777C8.02517 19.6777 3.82517 16.7302 2.30267 12.9277C3.82517 9.12523 8.02517 6.17773 12.0002 6.17773C15.9752 6.17773 20.1752 9.12523 21.6977 12.9277C20.1752 16.7302 15.9752 19.6777 12.0002 19.6777Z" fill="black"/>
<path d="M12 8.42773C11.11 8.42773 10.24 8.69166 9.49994 9.18612C8.75991 9.68059 8.18314 10.3834 7.84254 11.2057C7.50195 12.0279 7.41283 12.9327 7.58647 13.8056C7.7601 14.6786 8.18869 15.4804 8.81802 16.1097C9.44736 16.7391 10.2492 17.1676 11.1221 17.3413C11.995 17.5149 12.8998 17.4258 13.7221 17.0852C14.5443 16.7446 15.2471 16.1678 15.7416 15.4278C16.2361 14.6878 16.5 13.8178 16.5 12.9277C16.5 11.7343 16.0259 10.5897 15.182 9.74575C14.3381 8.90184 13.1935 8.42773 12 8.42773ZM12 15.9277C11.4067 15.9277 10.8266 15.7518 10.3333 15.4221C9.83994 15.0925 9.45543 14.624 9.22836 14.0758C9.0013 13.5276 8.94189 12.9244 9.05765 12.3425C9.1734 11.7605 9.45912 11.226 9.87868 10.8064C10.2982 10.3869 10.8328 10.1011 11.4147 9.98538C11.9967 9.86962 12.5999 9.92903 13.1481 10.1561C13.6962 10.3832 14.1648 10.7677 14.4944 11.261C14.8241 11.7544 15 12.3344 15 12.9277C15 13.7234 14.6839 14.4864 14.1213 15.0491C13.5587 15.6117 12.7957 15.9277 12 15.9277Z" fill="black"/>
</svg>
